PathFileType	4	(X/Y/Z)	1H_rest_med_left.trc
DataRate	CameraRate	NumFrames	NumMarkers	Units	OrigDataRate	OrigDataStartFrame	OrigNumFrames
250.00	250.00	10	18	mm	250.00	2935	23478
Frame#	Time	c7	r_should	l_should	clavicle	r_upa	r_elb_l	r_elb_m	r_low	r_wri_l	r_wri_m	r_met	l_upa	l_elb_l	l_elb_m	l_low	l_wri_l	l_wri_m	l_met
	X1	Y1	Z1	X2	Y2	Z2	X3	Y3	Z3	X4	Y4	Z4	X5	Y5	Z5	X6	Y6	Z6	X7	Y7	Z7	X8	Y8	Z8	X9	Y9	Z9	X10	Y10	Z10	X11	Y11	Z11	X12	Y12	Z12	X13	Y13	Z13	X14	Y14	Z14	X15	Y15	Z15	X16	Y16	Z16	X17	Y17	Z17	X18	Y18	Z18
2935	11.73600	604.20917	1418.59802	260.73608	668.05090	1359.94800	413.10721	633.92767	1370.19897	96.22715	733.53925	1280.38123	243.58644	677.45203	1155.98804	491.13214	676.41992	1068.19189	515.79712	620.88837	1029.94788	455.19614	739.87964	896.86273	498.07312	704.97998	809.43616	502.05731	765.54834	833.49896	467.14987	809.28815	758.16583	494.32349	633.65350	1192.75403	11.72828	634.68506	1124.25244	-14.27812	677.13080	1062.01477	60.14654	722.27533	1190.19312	-3.62166	750.82361	1253.24548	27.48276	812.04163	1214.43799	28.23690	792.73383	1320.60522	-1.29703
2936	11.74000	604.20642	1418.60693	260.73740	668.05902	1359.96240	413.11929	633.92944	1370.19702	96.23128	733.54639	1280.39563	243.58771	677.44598	1155.98193	491.10416	676.42633	1068.18262	515.77252	620.89636	1029.93518	455.16785	739.91583	896.88800	498.07242	705.01837	809.42920	502.03168	765.60437	833.53021	467.14832	809.35504	758.20001	494.31833	633.62415	1192.71521	11.71695	634.67279	1124.22729	-14.29458	677.07990	1061.97522	60.10986	722.29102	1190.18384	-3.62524	750.85339	1253.23938	27.46341	812.06366	1214.43066	28.20697	792.77545	1320.59143	-1.32163
2937	11.74400	604.19586	1418.60083	260.73914	668.05975	1359.97314	413.12701	633.91864	1370.18726	96.23263	733.55188	1280.40881	243.58859	677.43726	1155.97375	491.09048	676.42432	1068.17310	515.76019	620.89703	1029.92444	455.15347	739.95154	896.91388	498.07520	705.05634	809.41968	502.02234	765.65326	833.55762	467.13846	809.41058	758.23444	494.32037	633.60345	1192.68164	11.71278	634.66260	1124.18945	-14.29182	677.03918	1061.94165	60.07839	722.30267	1190.16150	-3.62450	750.88287	1253.21948	27.46328	812.08673	1214.41296	28.19141	792.81616	1320.56335	-1.34301
2938	11.74800	604.17993	1418.59167	260.75412	668.05383	1359.98157	413.12982	633.89783	1370.18530	96.24075	733.55713	1280.41919	243.58795	677.43958	1155.97498	491.09204	676.43005	1068.17651	515.76355	620.89612	1029.91919	455.16180	739.98486	896.93884	498.07571	705.08899	809.42188	502.02429	765.69250	833.58575	467.13370	809.45917	758.26776	494.32498	633.59607	1192.66418	11.72252	634.66278	1124.15869	-14.26874	677.03278	1061.93030	60.08701	722.31293	1190.13269	-3.61972	750.90759	1253.19214	27.45436	812.11053	1214.38342	28.19110	792.85858	1320.52075	-1.36212
2939	11.75200	604.16406	1418.57971	260.77509	668.04535	1359.98291	413.13660	633.87823	1370.17786	96.24238	733.55347	1280.42664	243.58878	677.45306	1155.99292	491.11554	676.45239	1068.19409	515.78003	620.91010	1029.92627	455.19583	740.01562	896.96106	498.08002	705.12628	809.44519	502.03992	765.72620	833.60675	467.13718	809.50592	758.30109	494.33365	633.60748	1192.66870	11.74679	634.67737	1124.15430	-14.23489	677.05927	1061.94421	60.13966	722.32733	1190.10657	-3.61612	750.93604	1253.16309	27.46076	812.13446	1214.34546	28.20757	792.89795	1320.48706	-1.38468
2940	11.75600	604.15149	1418.56750	260.78961	668.04279	1359.98010	413.14420	633.86572	1370.16833	96.24888	733.55072	1280.42798	243.59241	677.48169	1156.01941	491.14508	676.48004	1068.21863	515.80786	620.93738	1029.94812	455.23474	740.04486	896.97443	498.08563	705.17542	809.48572	502.06888	765.76111	833.61768	467.14639	809.55127	758.32062	494.34515	633.63605	1192.68848	11.77290	634.70624	1124.15845	-14.19790	677.11578	1061.96375	60.20368	722.35089	1190.07471	-3.61103	750.96198	1253.13342	27.45829	812.15637	1214.30164	28.23375	792.94165	1320.46130	-1.41041
2941	11.76000	604.14697	1418.55713	260.80090	668.04614	1359.97937	413.15210	633.86108	1370.16418	96.25592	733.54901	1280.42151	243.60004	677.51520	1156.04480	491.17126	676.50592	1068.24304	515.83722	620.97186	1029.97900	455.26300	740.07587	896.98267	498.08801	705.23206	809.52954	502.09891	765.79437	833.62329	467.15366	809.59711	758.33905	494.35309	633.66736	1192.70972	11.79158	634.73804	1124.16394	-14.17630	677.18658	1061.99426	60.25815	722.37970	1190.05151	-3.61424	750.99017	1253.10657	27.44552	812.17963	1214.25537	28.26659	792.99225	1320.43542	-1.44714
2942	11.76400	604.14600	1418.55823	260.81009	668.05957	1359.99170	413.15622	633.86865	1370.16858	96.25462	733.54944	1280.42322	243.60437	677.53430	1156.06445	491.18567	676.53156	1068.26184	515.84753	621.00635	1029.99744	455.26672	740.10858	896.99640	498.08356	705.28247	809.56378	502.10583	765.83246	833.64117	467.15546	809.64655	758.36523	494.36124	633.69116	1192.72449	11.79609	634.76306	1124.16711	-14.16877	677.21533	1062.01917	60.28214	722.41138	1190.04016	-3.62457	751.01825	1253.08813	27.42519	812.20526	1214.21313	28.29019	793.04510	1320.41406	-1.48683
2943	11.76800	604.14752	1418.56091	260.80850	668.08130	1360.00586	413.15646	633.87598	1370.17700	96.24617	733.55518	1280.43213	243.59875	677.54236	1156.07080	491.17596	676.55206	1068.26660	515.83478	621.03632	1029.99805	455.24765	740.14081	897.01526	498.08380	705.32733	809.57501	502.08990	765.87585	833.66998	467.15277	809.70312	758.39996	494.36041	633.69391	1192.71375	11.78294	634.78088	1124.15991	-14.17853	677.19891	1062.01929	60.28145	722.43915	1190.02600	-3.63956	751.05383	1253.07324	27.40339	812.23248	1214.18140	28.29299	793.09656	1320.39258	-1.52789
2944	11.77200	604.15088	1418.56006	260.79669	668.09686	1360.02258	413.15842	633.88525	1370.17981	96.24527	733.56256	1280.45129	243.59290	677.54785	1156.05884	491.15085	676.56665	1068.26147	515.81323	621.05334	1029.98462	455.21335	740.17944	897.03192	498.07468	705.36859	809.56244	502.05405	765.92657	833.69556	467.13998	809.76239	758.42517	494.35559	633.67432	1192.68274	11.76983	634.78467	1124.13867	-14.19576	677.14606	1061.98694	60.25209	722.46588	1190.00439	-3.66129	751.09180	1253.05908	27.37476	812.25818	1214.16260	28.27373	793.14447	1320.36804	-1.56987
